#N canvas 21 220 713 610 10;
#X obj 111 116 * 20;
#X obj 109 139 osc~;
#X obj 194 343 dac~;
#X obj 153 122 * 20;
#X obj 152 143 osc~;
#X obj 193 130 * 20;
#X obj 192 151 osc~;
#X obj 236 134 * 20;
#X obj 235 155 osc~;
#X floatatom 474 172 5 0 0 0 - - -;
#X obj 122 254 +~;
#X obj 154 265 -~;
#X obj 189 273 +~;
#X obj 229 298 *~;
#X obj 309 314 *~;
#X obj 329 340 *~;
#X obj 161 301 *~;
#X obj 476 150 line;
#X obj 110 102 line;
#X obj 157 101 line;
#X obj 203 100 line;
#X obj 249 102 line;
#X obj 60 -147 tgl 15 0 empty empty empty 17 7 0 10 -262144 -1 -1 1
1;
#X obj 96 -33 sel 1 2 3 4 5 6 7;
#X obj 102 -73 f;
#X obj 125 -102 + 1;
#X obj 170 -83 sel 7;
#X msg 170 -67 0;
#X obj 88 -14 bng 15 250 50 0 empty empty empty 17 7 0 10 -262144 -1
-1;
#X obj 103 -14 bng 15 250 50 0 empty empty empty 17 7 0 10 -262144
-1 -1;
#X obj 118 -14 bng 15 250 50 0 empty empty empty 17 7 0 10 -262144
-1 -1;
#X obj 133 -14 bng 15 250 50 0 empty empty empty 17 7 0 10 -262144
-1 -1;
#X obj 148 -14 bng 15 250 50 0 empty empty empty 17 7 0 10 -262144
-1 -1;
#X obj 163 -14 bng 15 250 50 0 empty empty empty 17 7 0 10 -262144
-1 -1;
#X obj 178 -14 bng 15 250 50 0 empty empty empty 17 7 0 10 -262144
-1 -1;
#X obj 193 -14 bng 15 250 50 0 empty empty empty 17 7 0 10 -262144
-1 -1;
#X msg 151 21 8;
#X msg 272 25 128;
#X msg 121 21 2;
#X obj 101 207 *~;
#X obj 145 215 *~;
#X obj 96 165 osc~ 0.113;
#X obj 191 226 *~;
#X obj 200 188 osc~ 0.261743;
#X msg 92 22 4;
#X msg 302 25 64;
#X msg 476 131 \$1 700;
#X obj 26 145 osc~ 1.01;
#X obj 142 176 osc~ 2.2617;
#X obj 234 221 *~;
#X obj 444 -50 sel 1 2 3 4 5 6 7 8 9 10;
#X msg 378 18 1;
#X msg 408 18 2;
#X msg 439 17 3;
#X msg 469 18 5;
#X msg 500 18 8;
#X msg 534 19 13;
#X obj 445 -71 random 10;
#X msg 564 19 21;
#X msg 595 18 33;
#X msg 625 19 54;
#X msg 657 19 87;
#X msg 241 23 1;
#X msg 179 22 1;
#X msg 211 23 16;
#X obj 324 284 *~;
#X obj 400 211 bng 15 250 50 0 empty empty empty 17 7 0 10 -262144
-1 -1;
#X msg 110 83 \$1 64;
#X msg 157 82 \$1 32;
#X msg 203 81 \$1 16;
#X msg 249 83 \$1 128;
#X obj 342 121 noise~;
#X obj 304 183 *~;
#X obj 313 158 *~ 0.1;
#X obj 347 183 osc~ 0.0321;
#X obj 551 175 noise~;
#X obj 513 237 *~;
#X obj 545 284 noise~;
#X obj 507 346 *~;
#X obj 550 346 osc~ 0.0121;
#X obj 516 321 *~ 0.01;
#X obj 522 212 *~ 0.06;
#X obj 555 237 osc~ 1.0121;
#X obj 323 255 phasor~ 0.5;
#X obj 305 232 phasor~ 0.5;
#X obj 362 293 osc~ 0.133;
#X obj 380 315 osc~ 0.342;
#X obj 54 -127 metro 666;
#X connect 0 0 1 0;
#X connect 1 0 39 0;
#X connect 3 0 4 0;
#X connect 4 0 40 0;
#X connect 5 0 6 0;
#X connect 6 0 42 0;
#X connect 7 0 8 0;
#X connect 8 0 49 1;
#X connect 9 0 7 1;
#X connect 9 0 5 1;
#X connect 9 0 3 1;
#X connect 9 0 0 1;
#X connect 10 0 11 0;
#X connect 11 0 12 0;
#X connect 12 0 13 0;
#X connect 12 0 16 0;
#X connect 13 0 2 1;
#X connect 14 0 13 1;
#X connect 15 0 16 1;
#X connect 16 0 2 0;
#X connect 17 0 9 0;
#X connect 18 0 0 0;
#X connect 19 0 3 0;
#X connect 20 0 5 0;
#X connect 21 0 7 0;
#X connect 22 0 87 0;
#X connect 23 0 28 0;
#X connect 23 1 29 0;
#X connect 23 2 30 0;
#X connect 23 3 31 0;
#X connect 23 4 32 0;
#X connect 23 5 33 0;
#X connect 23 6 34 0;
#X connect 23 7 35 0;
#X connect 24 0 25 0;
#X connect 24 0 26 0;
#X connect 24 0 23 0;
#X connect 25 0 24 1;
#X connect 26 0 27 0;
#X connect 27 0 24 1;
#X connect 28 0 44 0;
#X connect 29 0 38 0;
#X connect 30 0 36 0;
#X connect 31 0 63 0;
#X connect 32 0 64 0;
#X connect 32 0 38 0;
#X connect 33 0 62 0;
#X connect 34 0 37 0;
#X connect 34 0 36 0;
#X connect 35 0 45 0;
#X connect 35 0 57 0;
#X connect 35 0 44 0;
#X connect 36 0 67 0;
#X connect 36 0 68 0;
#X connect 37 0 69 0;
#X connect 37 0 67 0;
#X connect 38 0 67 0;
#X connect 38 0 69 0;
#X connect 39 0 10 0;
#X connect 40 0 10 1;
#X connect 41 0 40 1;
#X connect 42 0 11 1;
#X connect 43 0 49 0;
#X connect 44 0 67 0;
#X connect 44 0 70 0;
#X connect 45 0 70 0;
#X connect 46 0 17 0;
#X connect 47 0 39 1;
#X connect 48 0 42 1;
#X connect 49 0 12 1;
#X connect 50 0 51 0;
#X connect 50 1 52 0;
#X connect 50 2 53 0;
#X connect 50 3 54 0;
#X connect 50 4 55 0;
#X connect 50 5 56 0;
#X connect 50 6 58 0;
#X connect 50 7 59 0;
#X connect 50 8 60 0;
#X connect 50 9 61 0;
#X connect 51 0 46 0;
#X connect 52 0 46 0;
#X connect 53 0 46 0;
#X connect 54 0 46 0;
#X connect 55 0 46 0;
#X connect 56 0 46 0;
#X connect 57 0 50 0;
#X connect 58 0 46 0;
#X connect 59 0 46 0;
#X connect 60 0 46 0;
#X connect 61 0 46 0;
#X connect 62 0 68 0;
#X connect 63 0 68 0;
#X connect 64 0 68 0;
#X connect 65 0 14 0;
#X connect 65 0 15 0;
#X connect 66 0 83 1;
#X connect 66 0 84 1;
#X connect 66 0 85 1;
#X connect 66 0 86 1;
#X connect 67 0 18 0;
#X connect 68 0 19 0;
#X connect 69 0 20 0;
#X connect 70 0 21 0;
#X connect 71 0 73 0;
#X connect 72 0 42 1;
#X connect 73 0 72 0;
#X connect 74 0 72 1;
#X connect 75 0 81 0;
#X connect 76 0 39 1;
#X connect 77 0 80 0;
#X connect 78 0 12 1;
#X connect 79 0 78 1;
#X connect 80 0 78 0;
#X connect 81 0 76 0;
#X connect 82 0 76 1;
#X connect 83 0 65 1;
#X connect 84 0 65 0;
#X connect 85 0 14 1;
#X connect 86 0 15 1;
#X connect 87 0 24 0;
