#N canvas 700 239 797 516 10;
#X obj 326 47 counter 1 7;
#X obj 331 70 sel 1 2 3 4 5 6 7;
#X obj 308 3 tgl 15 0 empty empty empty 17 7 0 10 -262144 -1 -1 1 1
;
#X obj 145 172 ead~ 70 222;
#X obj 117 219 *~;
#X obj 110 143 osc~ 88;
#X obj 242 193 phasor~ 2222;
#X obj 240 244 *~;
#X obj 299 254 ead~ 15 60;
#X obj 332 179 delay 120;
#X obj 342 203 ead~ 222 78;
#X obj 248 273 *~;
#X obj 157 198 ead~ 123 3;
#X obj 91 241 *~;
#X obj 327 228 phasor~ 2222.77;
#X obj 28 184 osc~ 88.93;
#X obj 110 97 ead~ 3000 800;
#X obj 60 71 osc~ 110;
#X obj 22 102 *~;
#X obj 247 158 sel 1;
#X obj 82 9 osc~ 112;
#X obj 101 122 *~;
#X obj 337 115 noise~;
#X obj 376 144 *~;
#X obj 427 171 lop~ 440;
#X obj 168 49 line;
#X obj 174 67 + 112;
#X obj 239 57 line;
#X obj 245 75 + 110;
#X obj 166 9 random 10;
#X obj 237 17 random 10;
#X msg 168 30 \$1 2000;
#X msg 239 38 \$1 500;
#X obj 479 249 line;
#X obj 550 257 line;
#X obj 477 209 random 10;
#X msg 479 230 \$1 2000;
#X msg 550 238 \$1 500;
#X obj 478 272 / 11;
#X obj 475 301 + 2222;
#X obj 556 275 / 4;
#X obj 566 298 + 2222;
#X obj 548 217 random 100;
#X obj 45 285 *~;
#X obj 12 233 osc~ 0.1;
#X obj 52 326 freeverb~;
#X obj 173 324 *~;
#X obj 103 284 osc~ 0.1277;
#X obj 312 23 metro 333;
#X obj 500 22 adc~;
#X obj 489 74 *~;
#X obj 457 44 osc~ 0.15;
#X obj 560 77 *~;
#X obj 172 240 *~;
#X obj 223 111 counter 1 7;
#X obj 24 259 *~ 0.2;
#X obj 20 41 *~ 0.1;
#X obj 429 139 *~ 0.3;
#X obj 566 168 counter 1 13;
#X obj 572 192 sel 5 6 7;
#X obj 445 112 ead~ 230 756;
#X obj 557 118 random 3000;
#X obj 527 149 + 44;
#X obj 126 475 dac~;
#X obj 528 47 osc~ 0.15;
#X connect 0 0 1 0;
#X connect 1 0 42 0;
#X connect 1 1 3 0;
#X connect 1 1 29 0;
#X connect 1 1 54 0;
#X connect 1 2 8 0;
#X connect 1 2 9 0;
#X connect 1 3 12 0;
#X connect 1 3 30 0;
#X connect 1 3 42 0;
#X connect 1 4 42 0;
#X connect 1 4 61 0;
#X connect 1 5 30 0;
#X connect 1 5 61 0;
#X connect 1 6 58 0;
#X connect 1 6 61 0;
#X connect 1 7 35 0;
#X connect 2 0 48 0;
#X connect 3 0 4 1;
#X connect 4 0 13 1;
#X connect 4 0 46 1;
#X connect 4 0 53 0;
#X connect 5 0 4 0;
#X connect 6 0 7 0;
#X connect 7 0 11 0;
#X connect 8 0 7 1;
#X connect 9 0 10 0;
#X connect 10 0 7 1;
#X connect 11 0 46 1;
#X connect 11 0 43 1;
#X connect 11 0 53 1;
#X connect 12 0 4 1;
#X connect 13 0 43 1;
#X connect 13 0 63 0;
#X connect 13 0 63 1;
#X connect 14 0 11 1;
#X connect 15 0 13 0;
#X connect 16 0 18 1;
#X connect 17 0 18 0;
#X connect 18 0 21 0;
#X connect 18 0 63 1;
#X connect 19 0 16 0;
#X connect 20 0 56 0;
#X connect 21 0 63 0;
#X connect 21 0 63 1;
#X connect 22 0 23 0;
#X connect 23 0 24 0;
#X connect 24 0 63 1;
#X connect 24 0 63 0;
#X connect 25 0 26 0;
#X connect 26 0 20 0;
#X connect 27 0 28 0;
#X connect 28 0 17 0;
#X connect 29 0 31 0;
#X connect 30 0 32 0;
#X connect 31 0 25 0;
#X connect 32 0 27 0;
#X connect 33 0 38 0;
#X connect 34 0 40 0;
#X connect 35 0 36 0;
#X connect 36 0 33 0;
#X connect 37 0 34 0;
#X connect 38 0 39 0;
#X connect 39 0 14 0;
#X connect 40 0 41 0;
#X connect 41 0 6 0;
#X connect 42 0 37 0;
#X connect 43 0 45 0;
#X connect 44 0 55 0;
#X connect 45 0 63 0;
#X connect 45 1 63 1;
#X connect 46 0 45 1;
#X connect 47 0 46 0;
#X connect 48 0 0 0;
#X connect 49 0 50 1;
#X connect 49 1 52 1;
#X connect 50 0 45 0;
#X connect 50 0 63 0;
#X connect 51 0 50 0;
#X connect 52 0 45 1;
#X connect 52 0 63 1;
#X connect 53 0 63 1;
#X connect 53 0 63 0;
#X connect 54 0 19 0;
#X connect 55 0 43 0;
#X connect 56 0 21 1;
#X connect 57 0 23 1;
#X connect 58 0 59 0;
#X connect 59 0 60 0;
#X connect 59 1 60 0;
#X connect 59 2 60 0;
#X connect 60 0 57 0;
#X connect 61 0 62 0;
#X connect 62 0 24 1;
#X connect 64 0 52 0;
