#N canvas 1053 63 1875 729 10;
#X obj 844 -136 sendOSC;
#X msg 897 -246 disconnect;
#X msg 879 -272 connect localhost 12000;
#X obj 72 17 tgl 15 0 empty empty empty 17 7 0 10 -262144 -1 -1 0 1
;
#X obj 63 223 *~;
#X obj 1285 397 dac~;
#X obj 89 134 + 3;
#X obj 219 233 *~;
#X obj 250 178 osc~ 77;
#X obj 250 138 + 3;
#X obj 373 232 *~;
#X obj 404 137 + 3;
#X obj 533 227 *~;
#X obj 564 172 osc~ 77;
#X obj 564 132 + 3;
#X obj 827 -180 pack f f f f f f f f f f;
#X msg 837 -155 send /bang \$1 \$2 \$3 \$4 \$5 \$6 \$7 \$8 \$9 \$10
;
#X obj 703 229 *~;
#X obj 734 134 + 3;
#X obj 854 234 *~;
#X obj 880 185 osc~ 77;
#X obj 944 210 noise~;
#X obj 878 260 +~;
#X obj 911 238 *~;
#X obj 880 145 + 3;
#X obj 1010 244 *~;
#X obj 1120 221 noise~;
#X obj 1034 270 +~;
#X obj 1067 248 *~;
#X obj 1041 149 + 3;
#X obj 1164 243 *~;
#X obj 1195 188 osc~ 77;
#X obj 1254 219 noise~;
#X obj 1188 269 +~;
#X obj 1221 247 *~;
#X obj 1195 148 + 3;
#X obj 1324 238 *~;
#X obj 1414 214 noise~;
#X obj 1348 264 +~;
#X obj 1381 242 *~;
#X obj 1355 143 + 3;
#X obj 1494 240 *~;
#X obj 1584 216 noise~;
#X obj 1518 266 +~;
#X obj 1551 244 *~;
#X obj 1525 145 + 3;
#X obj 602 351 +~;
#X obj 1267 371 freeverb~;
#X obj 948 243 *~ 1;
#X obj 1104 253 *~ 1;
#X obj 1258 252 *~ 1;
#X obj 1418 247 *~ 1;
#X obj 1588 249 *~ 1;
#X obj 1581 271 lop~ 234;
#X obj 1411 269 lop~ 213;
#X obj 1251 274 lop~ 2355;
#X obj 1097 275 lop~ 213;
#X obj 941 265 lop~ 1234;
#X obj 76 199 ead~ 15 1000;
#X obj 229 206 ead~ 15 1000;
#X obj 386 208 ead~ 15 1000;
#X obj 546 203 ead~ 15 1000;
#X obj 716 205 ead~ 15 1000;
#X obj 867 210 ead~ 15 1000;
#X obj 1038 222 ead~ 15 1000;
#X obj 1177 219 ead~ 15 1000;
#X obj 1337 214 ead~ 15 1000;
#X obj 1508 216 ead~ 15 1000;
#X floatatom 328 -186 5 0 0 0 - - -;
#X floatatom 429 -172 5 0 0 0 - - -;
#X obj 74 38 metro 2000;
#X obj 89 174 phasor~ 77;
#X obj 404 177 phasor~ 77;
#X obj 734 174 phasor~ 77;
#X obj 1041 189 phasor~ 77;
#X obj 1355 183 phasor~ 77;
#X obj 1525 185 phasor~ 77;
#X obj 89 115 random 5;
#X obj 250 119 random 5;
#X obj 404 118 random 5;
#X obj 564 113 random 5;
#X obj 734 115 random 5;
#X obj 880 126 random 5;
#X obj 1041 130 random 5;
#X obj 1195 129 random 5;
#X obj 1355 124 random 5;
#X obj 1525 126 random 5;
#X obj 1525 165 * 32.1;
#X obj 1355 163 * 32.23;
#X obj 1195 168 * 32.32;
#X obj 1041 169 * 32.43;
#X obj 880 165 * 32.234;
#X obj 734 154 * 32.44;
#X obj 564 152 * 32.55;
#X obj 404 157 * 32.2342;
#X obj 250 158 * 32.2345;
#X obj 89 154 * 32.2344;
#X obj 326 330 +~;
#X obj 371 327 -~;
#X obj 437 324 +~;
#X obj 512 330 -~;
#X obj 802 318 -~;
#X obj 916 329 +~;
#X obj 1035 331 -~;
#X obj 1181 340 +~;
#X floatatom 242 -180 5 0 0 0 - - -;
#X obj 159 -122;
#X msg 126 -93 bang;
#X obj 124 -296 tgl 15 0 empty empty empty 17 7 0 10 -262144 -1 -1
0 1;
#X obj 129 -189 line;
#X msg 124 -211 \$1 50;
#X obj 128 -260 metro 2000;
#X obj 58 -166 random 800;
#X obj 60 -143 + 100;
#X connect 1 0 0 0;
#X connect 2 0 0 0;
#X connect 3 0 70 0;
#X connect 4 0 97 0;
#X connect 6 0 96 0;
#X connect 7 0 97 1;
#X connect 8 0 7 0;
#X connect 9 0 95 0;
#X connect 10 0 98 1;
#X connect 11 0 94 0;
#X connect 12 0 99 1;
#X connect 13 0 12 0;
#X connect 14 0 93 0;
#X connect 15 0 16 0;
#X connect 16 0 0 0;
#X connect 17 0 100 1;
#X connect 18 0 92 0;
#X connect 19 0 22 0;
#X connect 20 0 19 0;
#X connect 21 0 48 0;
#X connect 22 0 46 1;
#X connect 23 0 22 1;
#X connect 24 0 91 0;
#X connect 25 0 27 0;
#X connect 26 0 49 0;
#X connect 27 0 101 1;
#X connect 28 0 27 1;
#X connect 29 0 90 0;
#X connect 30 0 33 0;
#X connect 31 0 30 0;
#X connect 32 0 50 0;
#X connect 33 0 102 1;
#X connect 34 0 33 1;
#X connect 35 0 89 0;
#X connect 36 0 38 0;
#X connect 37 0 51 0;
#X connect 38 0 103 1;
#X connect 39 0 38 1;
#X connect 40 0 88 0;
#X connect 41 0 43 0;
#X connect 42 0 52 0;
#X connect 43 0 104 1;
#X connect 44 0 43 1;
#X connect 45 0 87 0;
#X connect 46 0 101 0;
#X connect 47 0 5 0;
#X connect 47 1 5 1;
#X connect 48 0 57 0;
#X connect 49 0 56 0;
#X connect 50 0 55 0;
#X connect 51 0 54 0;
#X connect 52 0 53 0;
#X connect 53 0 44 1;
#X connect 54 0 39 1;
#X connect 55 0 34 1;
#X connect 56 0 28 1;
#X connect 57 0 23 1;
#X connect 58 0 4 1;
#X connect 59 0 7 1;
#X connect 60 0 10 1;
#X connect 61 0 12 1;
#X connect 62 0 17 1;
#X connect 63 0 19 1;
#X connect 63 0 23 0;
#X connect 64 0 25 1;
#X connect 64 0 28 0;
#X connect 65 0 30 1;
#X connect 65 0 34 0;
#X connect 66 0 36 1;
#X connect 66 0 39 0;
#X connect 67 0 41 1;
#X connect 67 0 44 0;
#X connect 68 0 58 1;
#X connect 68 0 59 1;
#X connect 68 0 60 1;
#X connect 68 0 61 1;
#X connect 68 0 62 1;
#X connect 68 0 63 1;
#X connect 68 0 64 1;
#X connect 68 0 65 1;
#X connect 68 0 66 1;
#X connect 68 0 67 1;
#X connect 69 0 58 2;
#X connect 69 0 59 2;
#X connect 69 0 61 2;
#X connect 69 0 62 2;
#X connect 69 0 63 2;
#X connect 69 0 64 2;
#X connect 69 0 66 2;
#X connect 69 0 67 2;
#X connect 70 0 58 0;
#X connect 70 0 59 0;
#X connect 70 0 60 0;
#X connect 70 0 61 0;
#X connect 70 0 62 0;
#X connect 70 0 63 0;
#X connect 70 0 64 0;
#X connect 70 0 65 0;
#X connect 70 0 66 0;
#X connect 70 0 67 0;
#X connect 70 0 77 0;
#X connect 70 0 78 0;
#X connect 70 0 79 0;
#X connect 70 0 80 0;
#X connect 70 0 81 0;
#X connect 70 0 82 0;
#X connect 70 0 83 0;
#X connect 70 0 84 0;
#X connect 70 0 85 0;
#X connect 70 0 86 0;
#X connect 71 0 4 0;
#X connect 72 0 10 0;
#X connect 73 0 17 0;
#X connect 74 0 25 0;
#X connect 75 0 36 0;
#X connect 76 0 41 0;
#X connect 77 0 6 0;
#X connect 78 0 9 0;
#X connect 79 0 11 0;
#X connect 80 0 14 0;
#X connect 81 0 18 0;
#X connect 82 0 24 0;
#X connect 83 0 29 0;
#X connect 84 0 35 0;
#X connect 85 0 40 0;
#X connect 86 0 45 0;
#X connect 87 0 15 9;
#X connect 87 0 76 0;
#X connect 88 0 15 8;
#X connect 88 0 75 0;
#X connect 89 0 31 0;
#X connect 89 0 15 7;
#X connect 90 0 15 6;
#X connect 90 0 74 0;
#X connect 91 0 20 0;
#X connect 91 0 15 5;
#X connect 92 0 15 4;
#X connect 92 0 73 0;
#X connect 93 0 13 0;
#X connect 93 0 15 3;
#X connect 94 0 15 2;
#X connect 94 0 72 0;
#X connect 95 0 8 0;
#X connect 95 0 15 1;
#X connect 96 0 15 0;
#X connect 96 0 71 0;
#X connect 97 0 98 0;
#X connect 98 0 99 0;
#X connect 99 0 100 0;
#X connect 100 0 46 0;
#X connect 101 0 102 0;
#X connect 102 0 103 0;
#X connect 103 0 104 0;
#X connect 104 0 47 0;
#X connect 104 0 47 1;
#X connect 105 0 107 0;
#X connect 105 0 70 1;
#X connect 107 0 70 0;
#X connect 108 0 111 0;
#X connect 109 0 105 0;
#X connect 110 0 109 0;
#X connect 111 0 112 0;
#X connect 112 0 113 0;
#X connect 113 0 110 0;
