#N canvas 914 157 1060 751 10;
#X obj 518 678 dac~;
#X obj 242 196 *~;
#X obj 394 181 *~;
#X obj 599 191 *~;
#X obj 744 191 *~;
#X obj 676 99 osc~ 77;
#X obj 531 99 osc~ 175;
#X floatatom 148 47 5 0 0 0 - - -;
#X obj 139 304 *~;
#X obj 448 445 freeverb~;
#X obj 189 391 metro 75.7;
#X obj 188 363 tgl 15 0 empty empty empty 17 7 0 10 -262144 -1 -1 0
1;
#X obj 149 478 ead~ 15 40;
#X obj 273 449 noise~;
#X obj 146 502 *~;
#X obj 187 418 random 10;
#X obj 177 450 + 5;
#X obj 272 422 + 5;
#X obj 282 390 random 220;
#X obj 49 361;
#X obj 351 443 tgl 15 0 empty empty empty 17 7 0 10 -262144 -1 -1 0
1;
#X obj 298 604 ead~ 15 40;
#X obj 374 633 *~;
#X obj 326 576 + 5;
#X obj 410 544 + 5;
#X obj 591 406 tgl 15 0 empty empty empty 17 7 0 10 -262144 -1 -1 0
1;
#X obj 552 521 ead~ 15 40;
#X obj 578 568 *~;
#X obj 580 493 + 5;
#X obj 675 465 + 5;
#X obj 592 434 metro 759;
#X obj 590 461 random 40;
#X obj 839 405 tgl 15 0 empty empty empty 17 7 0 10 -262144 -1 -1 0
0.1511;
#X obj 800 520 ead~ 15 40;
#X obj 826 567 *~;
#X obj 732 614 *~;
#X obj 828 619 osc~ 7.523;
#X obj 924 491 phasor~ 11000;
#X obj 840 433 metro 75.933;
#X obj 462 387 clip~ -0.95 0.95;
#X obj 684 433 random 800;
#X obj 100 672 *~;
#X obj 181 646 *~;
#X obj 676 492 osc~ 110;
#X obj 352 471 metro 758;
#X obj 336 544 random 40;
#X obj 404 516 random 800;
#X obj 428 606 osc~ 7.533;
#X obj 396 599 *~;
#X obj 424 579 osc~ 80;
#X obj 719 119 r sync;
#X obj 910 159 s sync;
#X obj 916 130 bng 15 250 50 0 empty empty empty 17 7 0 10 -262144
-1 -1;
#X obj 566 123 r sync;
#X obj 357 115 r sync;
#X obj 209 128 r sync;
#X obj 114 237 r sync;
#X obj 135 189 r sync;
#X obj 241 81 r sync;
#X obj 369 67 r sync;
#X obj 576 76 r sync;
#X obj 715 74 r sync;
#X obj 347 331 +~;
#X msg 18 70 7.555;
#X obj 274 128 osc~ 7.555;
#X obj 190 60 * 2;
#X obj 351 35 * 2;
#X obj 483 36 * 2;
#X obj 186 591 osc~ 0.0121432;
#X obj 721 688 *~;
#X obj 774 687 osc~ 7.5222;
#X obj 895 107 metro 555;
#X obj 896 84 tgl 15 0 empty empty empty 17 7 0 10 -262144 -1 -1 0
1;
#X msg 263 694 close;
#X obj 318 692 sfwrite~ 2;
#X obj 465 549 r sync;
#X msg 14 19 0;
#X obj 291 641;
#X msg 254 640 0;
#X msg 415 711 open /desk/soundtrack/soundtrackJev.wav;
#X msg 127 705 1;
#X msg 16 44 1;
#X obj 932 432 random 40;
#X obj 923 464 + 10;
#X obj 838 460 random 5;
#X obj 828 492 + 5;
#X obj 96 355 tgl 15 0 empty empty empty 17 7 0 10 -262144 -1 -1 0
1;
#X obj 21 461 sel 1 2 3 4 5 6 7 8;
#X msg 9 137 120;
#X msg 89 141 100;
#X msg 44 135 160;
#X msg 19 93 140;
#X obj 59 180 * 2;
#X obj 71 212 osc~ 330;
#X obj 174 104 osc~ 330;
#X obj 326 89 osc~ 660;
#X obj 598 333 env~;
#X floatatom 590 362 5 0 0 0 - - -;
#X obj 432 352 +~;
#X obj 511 364 *~ 0.45;
#X obj 70 595 osc~ 0.0121433;
#X obj 19 250 phasor~ 7.551;
#X obj 149 152 phasor~ 7.553;
#X obj 479 137 phasor~ 7.556;
#X obj 626 137 phasor~ 7.557;
#X obj 321 309 *~;
#X obj 381 341 *~;
#X obj 95 392 metro 1000;
#X obj 118 24 line;
#X obj 182 18;
#X obj 106 101 change;
#X obj 58 429 counter 1 7;
#X obj 102 556 *~;
#X msg 81 74 \$1 1000;
#X obj 157 532 *~ 0.9;
#X obj 100 533 *~ 0.9;
#X connect 1 0 105 1;
#X connect 2 0 62 1;
#X connect 3 0 106 1;
#X connect 4 0 98 1;
#X connect 5 0 4 1;
#X connect 6 0 3 1;
#X connect 7 0 65 0;
#X connect 7 0 94 0;
#X connect 7 0 110 0;
#X connect 8 0 105 0;
#X connect 10 0 12 0;
#X connect 10 0 15 0;
#X connect 10 0 18 0;
#X connect 11 0 10 0;
#X connect 12 0 14 0;
#X connect 13 0 14 1;
#X connect 14 0 114 0;
#X connect 14 0 115 0;
#X connect 15 0 16 0;
#X connect 16 0 12 1;
#X connect 17 0 12 2;
#X connect 18 0 17 0;
#X connect 20 0 44 0;
#X connect 21 0 48 0;
#X connect 22 0 0 1;
#X connect 22 0 0 0;
#X connect 22 0 74 0;
#X connect 22 0 74 1;
#X connect 23 0 21 1;
#X connect 24 0 21 2;
#X connect 25 0 30 0;
#X connect 26 0 27 0;
#X connect 27 0 0 1;
#X connect 27 0 0 0;
#X connect 28 0 26 1;
#X connect 29 0 26 2;
#X connect 30 0 26 0;
#X connect 30 0 31 0;
#X connect 30 0 40 0;
#X connect 31 0 28 0;
#X connect 32 0 38 0;
#X connect 33 0 34 0;
#X connect 34 0 35 0;
#X connect 34 0 69 0;
#X connect 35 0 0 0;
#X connect 35 0 74 0;
#X connect 36 0 35 1;
#X connect 37 0 34 1;
#X connect 38 0 33 0;
#X connect 38 0 82 0;
#X connect 38 0 84 0;
#X connect 39 0 9 0;
#X connect 39 0 9 1;
#X connect 39 0 0 0;
#X connect 39 0 0 1;
#X connect 39 0 74 0;
#X connect 39 0 74 1;
#X connect 40 0 29 0;
#X connect 41 0 0 0;
#X connect 41 0 74 0;
#X connect 42 0 0 1;
#X connect 42 0 74 1;
#X connect 43 0 27 1;
#X connect 44 0 21 0;
#X connect 44 0 45 0;
#X connect 44 0 46 0;
#X connect 45 0 23 0;
#X connect 46 0 24 0;
#X connect 47 0 22 1;
#X connect 48 0 22 0;
#X connect 49 0 48 1;
#X connect 50 0 104 1;
#X connect 52 0 51 0;
#X connect 53 0 103 1;
#X connect 54 0 64 1;
#X connect 55 0 102 1;
#X connect 56 0 101 1;
#X connect 57 0 93 1;
#X connect 58 0 94 1;
#X connect 59 0 95 1;
#X connect 60 0 6 1;
#X connect 61 0 5 1;
#X connect 62 0 106 0;
#X connect 63 0 113 0;
#X connect 64 0 2 0;
#X connect 65 0 66 0;
#X connect 65 0 95 0;
#X connect 66 0 6 0;
#X connect 66 0 67 0;
#X connect 67 0 5 0;
#X connect 68 0 42 0;
#X connect 69 0 0 1;
#X connect 69 0 74 1;
#X connect 70 0 69 1;
#X connect 71 0 52 0;
#X connect 72 0 71 0;
#X connect 73 0 74 0;
#X connect 75 0 49 1;
#X connect 75 0 68 1;
#X connect 75 0 43 1;
#X connect 75 0 37 1;
#X connect 75 0 36 1;
#X connect 75 0 70 1;
#X connect 75 0 100 1;
#X connect 76 0 113 0;
#X connect 78 0 74 0;
#X connect 79 0 74 0;
#X connect 80 0 74 0;
#X connect 81 0 113 0;
#X connect 82 0 83 0;
#X connect 83 0 33 2;
#X connect 84 0 85 0;
#X connect 85 0 33 1;
#X connect 86 0 107 0;
#X connect 87 0 63 0;
#X connect 87 1 81 0;
#X connect 88 0 113 0;
#X connect 89 0 113 0;
#X connect 90 0 113 0;
#X connect 91 0 113 0;
#X connect 92 0 93 0;
#X connect 93 0 8 1;
#X connect 94 0 1 1;
#X connect 95 0 2 1;
#X connect 96 0 97 0;
#X connect 98 0 99 0;
#X connect 99 0 39 0;
#X connect 99 0 96 0;
#X connect 100 0 41 0;
#X connect 101 0 8 0;
#X connect 102 0 1 0;
#X connect 103 0 3 0;
#X connect 104 0 4 0;
#X connect 105 0 62 0;
#X connect 106 0 98 0;
#X connect 107 0 111 0;
#X connect 108 0 7 0;
#X connect 110 0 32 0;
#X connect 111 0 87 0;
#X connect 112 0 41 1;
#X connect 113 0 108 0;
#X connect 114 0 42 1;
#X connect 115 0 112 1;
#X connect 115 0 112 0;
